<svg width="144" height="144" viewBox="0 0 144 144" fill="none" xmlns="http://www.w3.org/2000/svg">
<g clip-path="url(#clip0_14_230)">
<path d="M96 0H48C21.4903 0 0 21.4903 0 48V96C0 122.51 21.4903 144 48 144H96C122.51 144 144 122.51 144 96V48C144 21.4903 122.51 0 96 0Z" fill="#9CCC65"/>
<path d="M71.2386 109.994C65.5095 109.994 60.4195 109.012 55.9688 107.047C51.5417 105.058 48.0616 102.324 45.5284 98.8438C42.9953 95.3636 41.7169 91.3627 41.6932 86.8409H61.5795C61.6032 88.2377 62.0294 89.4924 62.858 90.6051C63.7102 91.6941 64.8703 92.5464 66.3381 93.1619C67.8059 93.7775 69.4867 94.0852 71.3807 94.0852C73.2036 94.0852 74.8134 93.7656 76.2102 93.1264C77.607 92.4635 78.696 91.5521 79.4773 90.392C80.2585 89.232 80.6373 87.9062 80.6136 86.4148C80.6373 84.947 80.1875 83.6449 79.2642 82.5085C78.3646 81.3722 77.098 80.4844 75.4645 79.8452C73.831 79.206 71.9489 78.8864 69.8182 78.8864H62.4318V65.25H69.8182C71.7831 65.25 73.5114 64.9304 75.0028 64.2912C76.518 63.652 77.6899 62.7642 78.5185 61.6278C79.3707 60.4915 79.785 59.1894 79.7614 57.7216C79.785 56.3011 79.4418 55.0464 78.7315 53.9574C78.0213 52.8684 77.027 52.0161 75.7486 51.4006C74.4938 50.785 73.0379 50.4773 71.3807 50.4773C69.5814 50.4773 67.9716 50.7969 66.5511 51.4361C65.1544 52.0753 64.0535 52.9631 63.2486 54.0994C62.4437 55.2358 62.0294 56.5379 62.0057 58.0057H43.1136C43.1373 53.5549 44.3565 49.625 46.7713 46.2159C49.2098 42.8068 52.5478 40.1316 56.7855 38.1903C61.0232 36.2491 65.8883 35.2784 71.3807 35.2784C76.7547 35.2784 81.5014 36.1899 85.6207 38.0128C89.7637 39.8357 92.9953 42.3452 95.3153 45.5412C97.6591 48.7135 98.8191 52.3475 98.7955 56.4432C98.8428 60.5152 97.446 63.8532 94.6051 66.4574C91.7879 69.0616 88.2131 70.6004 83.8807 71.0739V71.642C89.7519 72.2812 94.1671 74.0805 97.1264 77.0398C100.086 79.9754 101.542 83.6686 101.494 88.1193C101.518 92.3807 100.24 96.1567 97.6591 99.4474C95.1023 102.738 91.5393 105.319 86.9702 107.189C82.4247 109.059 77.1809 109.994 71.2386 109.994Z" fill="white"/>
</g>
<defs>
<clipPath id="clip0_14_230">
<rect width="144" height="144" fill="white"/>
</clipPath>
</defs>
</svg>
