<svg width="144" height="144" viewBox="0 0 144 144" fill="none" xmlns="http://www.w3.org/2000/svg">
<g clip-path="url(#clip0_14_240)">
<path d="M96 0H48C21.4903 0 0 21.4903 0 48V96C0 122.51 21.4903 144 48 144H96C122.51 144 144 122.51 144 96V48C144 21.4903 122.51 0 96 0Z" fill="#CDDC39"/>
<path d="M71.9489 109.994C66.3617 109.994 61.402 109.012 57.0696 107.047C52.7609 105.058 49.3636 102.324 46.8778 98.8438C44.4157 95.3636 43.161 91.3627 43.1136 86.8409H62.2898C62.3608 89.3504 63.3314 91.3509 65.2017 92.8423C67.0956 94.3338 69.3447 95.0795 71.9489 95.0795C73.9612 95.0795 75.7367 94.6534 77.2756 93.8011C78.8144 92.9252 80.0218 91.6941 80.8977 90.108C81.7737 88.5218 82.1998 86.6752 82.1761 84.5682C82.1998 82.4375 81.7737 80.5909 80.8977 79.0284C80.0218 77.4422 78.8144 76.223 77.2756 75.3707C75.7367 74.4948 73.9612 74.0568 71.9489 74.0568C69.8655 74.0568 67.9361 74.5658 66.1605 75.5838C64.4086 76.5781 63.1184 77.9631 62.2898 79.7386L44.9602 76.3295L47.8011 36.2727H96.6648V52.0398H63.9943L62.5739 68.0909H63C64.1364 65.8892 66.1013 64.0663 68.8949 62.6222C71.6884 61.1544 74.9318 60.4205 78.625 60.4205C82.9574 60.4205 86.8163 61.4266 90.2017 63.4389C93.6108 65.4512 96.2978 68.233 98.2628 71.7841C100.251 75.3116 101.234 79.3835 101.21 84C101.234 89.0663 100.027 93.5644 97.5881 97.4943C95.1733 101.401 91.776 104.466 87.3963 106.692C83.0166 108.893 77.8674 109.994 71.9489 109.994Z" fill="white"/>
</g>
<defs>
<clipPath id="clip0_14_240">
<rect width="144" height="144" fill="white"/>
</clipPath>
</defs>
</svg>
